STARTFONT 2.1
COMMENT
COMMENT Converted from OpenType font "Aldrich-Regular.ttf" by "otf2bdf 3.0".
COMMENT
FONT -FreeType-Aldrich-Medium-R-Normal--15-150-72-72-P-75-ISO10646-1
SIZE 15 72 72
FONTBOUNDINGBOX 17 20 -1 -6
STARTPROPERTIES 19
FOUNDRY "FreeType"
FAMILY_NAME "Aldrich"
WEIGHT_NAME "Medium"
SLANT "R"
SETWIDTH_NAME "Normal"
ADD_STYLE_NAME ""
PIXEL_SIZE 15
POINT_SIZE 150
RESOLUTION_X 72
RESOLUTION_Y 72
SPACING "P"
AVERAGE_WIDTH 75
CHARSET_REGISTRY "ISO10646"
CHARSET_ENCODING "1"
FONT_ASCENT 10
FONT_DESCENT 3
COPYRIGHT "Copyright (c) Matthew Desmond, 2011. All rights reserved."
_OTF_FONTFILE "Aldrich-Regular.ttf"
_OTF_PSNAME "Aldrich-Regular"
ENDPROPERTIES
CHARS 248
STARTCHAR 0020
ENCODING 32
SWIDTH 333 0
DWIDTH 5 0
BBX 0 0 0 0
BITMAP
ENDCHAR
STARTCHAR 0021
ENCODING 33
SWIDTH 266 0
DWIDTH 4 0
BBX 2 11 1 0
BITMAP
C0
C0
C0
C0
40
40
40
00
00
C0
C0
ENDCHAR
STARTCHAR 0022
ENCODING 34
SWIDTH 466 0
DWIDTH 7 0
BBX 5 5 1 6
BITMAP
D8
D8
D8
D8
48
ENDCHAR
STARTCHAR 0023
ENCODING 35
SWIDTH 800 0
DWIDTH 12 0
BBX 9 11 1 0
BITMAP
1100
1100
1100
FF80
3300
2200
2200
FF80
2200
2600
6600
ENDCHAR
STARTCHAR 0024
ENCODING 36
SWIDTH 666 0
DWIDTH 10 0
BBX 8 14 1 -2
BITMAP
08
7F
FF
C9
C8
C8
FF
7F
09
C9
FF
FF
08
08
ENDCHAR
STARTCHAR 0025
ENCODING 37
SWIDTH 933 0
DWIDTH 14 0
BBX 12 10 1 0
BITMAP
F060
98C0
9980
9900
F200
06F0
0C90
0890
1090
30F0
ENDCHAR
STARTCHAR 0026
ENCODING 38
SWIDTH 733 0
DWIDTH 11 0
BBX 10 10 1 0
BITMAP
7E00
C200
C300
C000
7FC0
C300
C300
C300
C300
7FC0
ENDCHAR
STARTCHAR 0027
ENCODING 39
SWIDTH 266 0
DWIDTH 4 0
BBX 2 5 1 6
BITMAP
C0
C0
C0
C0
40
ENDCHAR
STARTCHAR 0028
ENCODING 40
SWIDTH 400 0
DWIDTH 6 0
BBX 4 14 1 -3
BITMAP
30
40
C0
C0
C0
C0
C0
C0
C0
C0
C0
C0
40
30
ENDCHAR
STARTCHAR 0029
ENCODING 41
SWIDTH 400 0
DWIDTH 6 0
BBX 4 14 1 -3
BITMAP
C0
20
30
30
30
30
30
30
30
30
30
30
20
C0
ENDCHAR
STARTCHAR 002A
ENCODING 42
SWIDTH 533 0
DWIDTH 8 0
BBX 6 7 1 4
BITMAP
30
10
DC
78
30
68
48
ENDCHAR
STARTCHAR 002B
ENCODING 43
SWIDTH 733 0
DWIDTH 11 0
BBX 8 8 1 0
BITMAP
08
08
08
FF
08
08
08
08
ENDCHAR
STARTCHAR 002C
ENCODING 44
SWIDTH 333 0
DWIDTH 5 0
BBX 2 4 1 -2
BITMAP
C0
C0
40
C0
ENDCHAR
STARTCHAR 002D
ENCODING 45
SWIDTH 400 0
DWIDTH 6 0
BBX 4 1 1 4
BITMAP
F0
ENDCHAR
STARTCHAR 002E
ENCODING 46
SWIDTH 333 0
DWIDTH 5 0
BBX 2 2 1 0
BITMAP
C0
C0
ENDCHAR
STARTCHAR 002F
ENCODING 47
SWIDTH 466 0
DWIDTH 7 0
BBX 5 12 1 -1
BITMAP
18
18
10
30
30
20
60
60
40
C0
80
80
ENDCHAR
STARTCHAR 0030
ENCODING 48
SWIDTH 733 0
DWIDTH 11 0
BBX 9 11 1 0
BITMAP
7F00
FF80
C180
C180
C180
C180
C180
C180
C180
FF80
7F00
ENDCHAR
STARTCHAR 0031
ENCODING 49
SWIDTH 333 0
DWIDTH 5 0
BBX 4 11 0 0
BITMAP
F0
F0
30
30
30
30
30
30
30
30
30
ENDCHAR
STARTCHAR 0032
ENCODING 50
SWIDTH 666 0
DWIDTH 10 0
BBX 8 11 1 0
BITMAP
7F
FF
C3
03
03
0C
30
C0
C1
FF
FF
ENDCHAR
STARTCHAR 0033
ENCODING 51
SWIDTH 666 0
DWIDTH 10 0
BBX 8 10 1 0
BITMAP
7E
83
83
03
3E
03
03
83
83
FE
ENDCHAR
STARTCHAR 0034
ENCODING 52
SWIDTH 600 0
DWIDTH 9 0
BBX 9 11 0 0
BITMAP
0600
0E00
0A00
1A00
3200
2200
4200
E200
FF80
0200
0200
ENDCHAR
STARTCHAR 0035
ENCODING 53
SWIDTH 666 0
DWIDTH 10 0
BBX 8 11 1 0
BITMAP
FE
FE
C0
C0
C0
FE
03
03
83
83
FE
ENDCHAR
STARTCHAR 0036
ENCODING 54
SWIDTH 733 0
DWIDTH 11 0
BBX 8 11 1 0
BITMAP
7F
FF
C1
C0
C0
FF
FF
C1
C1
FF
7F
ENDCHAR
STARTCHAR 0037
ENCODING 55
SWIDTH 600 0
DWIDTH 9 0
BBX 8 11 1 0
BITMAP
FF
FE
06
04
0C
08
18
10
30
20
60
ENDCHAR
STARTCHAR 0038
ENCODING 56
SWIDTH 666 0
DWIDTH 10 0
BBX 8 10 1 0
BITMAP
7E
C1
C1
C1
7E
C1
C1
C1
C1
7E
ENDCHAR
STARTCHAR 0039
ENCODING 57
SWIDTH 733 0
DWIDTH 11 0
BBX 8 11 1 0
BITMAP
7F
FF
C1
C1
C1
FF
7F
01
C1
FF
7F
ENDCHAR
STARTCHAR 003A
ENCODING 58
SWIDTH 333 0
DWIDTH 5 0
BBX 2 8 1 0
BITMAP
C0
C0
00
00
00
00
C0
C0
ENDCHAR
STARTCHAR 003B
ENCODING 59
SWIDTH 333 0
DWIDTH 5 0
BBX 2 10 1 -2
BITMAP
C0
C0
00
00
00
00
C0
C0
40
C0
ENDCHAR
STARTCHAR 003C
ENCODING 60
SWIDTH 666 0
DWIDTH 10 0
BBX 8 9 1 0
BITMAP
01
0F
3C
E0
80
E0
3C
0F
01
ENDCHAR
STARTCHAR 003D
ENCODING 61
SWIDTH 733 0
DWIDTH 11 0
BBX 8 4 1 2
BITMAP
FF
00
00
FF
ENDCHAR
STARTCHAR 003E
ENCODING 62
SWIDTH 666 0
DWIDTH 10 0
BBX 8 9 1 0
BITMAP
80
F0
3C
0F
01
0F
3C
F0
80
ENDCHAR
STARTCHAR 003F
ENCODING 63
SWIDTH 533 0
DWIDTH 8 0
BBX 7 11 1 0
BITMAP
FC
FC
86
04
1C
30
30
00
00
30
30
ENDCHAR
STARTCHAR 0040
ENCODING 64
SWIDTH 1066 0
DWIDTH 16 0
BBX 14 13 1 -3
BITMAP
3FF0
4018
C008
CF4C
C8CC
C84C
C84C
C84C
C84C
CFF8
C000
4000
3FF0
ENDCHAR
STARTCHAR 0041
ENCODING 65
SWIDTH 733 0
DWIDTH 11 0
BBX 10 11 0 0
BITMAP
0C00
0E00
0E00
1A00
1300
3300
3100
3F80
7F80
6080
C0C0
ENDCHAR
STARTCHAR 0042
ENCODING 66
SWIDTH 733 0
DWIDTH 11 0
BBX 9 10 1 0
BITMAP
FF00
C100
C100
C100
FE00
C100
C180
C180
C100
FF00
ENDCHAR
STARTCHAR 0043
ENCODING 67
SWIDTH 733 0
DWIDTH 11 0
BBX 9 11 1 0
BITMAP
7F80
FF80
C080
C000
C000
C000
C000
C000
C080
FF80
7F80
ENDCHAR
STARTCHAR 0044
ENCODING 68
SWIDTH 733 0
DWIDTH 11 0
BBX 9 11 1 0
BITMAP
FF00
FF80
C180
C080
C080
C080
C080
C080
C180
FF80
FF00
ENDCHAR
STARTCHAR 0045
ENCODING 69
SWIDTH 666 0
DWIDTH 10 0
BBX 8 11 1 0
BITMAP
FF
FF
C0
C0
C0
FE
FE
C0
C0
FF
FF
ENDCHAR
STARTCHAR 0046
ENCODING 70
SWIDTH 666 0
DWIDTH 10 0
BBX 8 11 1 0
BITMAP
FF
FF
C0
C0
C0
FE
FE
C0
C0
C0
C0
ENDCHAR
STARTCHAR 0047
ENCODING 71
SWIDTH 733 0
DWIDTH 11 0
BBX 9 11 1 0
BITMAP
7F80
FF80
C080
C000
C000
C780
C780
C080
C080
FF80
7F80
ENDCHAR
STARTCHAR 0048
ENCODING 72
SWIDTH 800 0
DWIDTH 12 0
BBX 9 11 1 0
BITMAP
C080
C080
C080
C080
C080
FF80
FF80
C080
C080
C080
C080
ENDCHAR
STARTCHAR 0049
ENCODING 73
SWIDTH 266 0
DWIDTH 4 0
BBX 2 11 1 0
BITMAP
C0
C0
C0
C0
C0
C0
C0
C0
C0
C0
C0
ENDCHAR
STARTCHAR 004A
ENCODING 74
SWIDTH 666 0
DWIDTH 10 0
BBX 7 11 1 0
BITMAP
02
02
02
02
02
02
02
C2
C2
FE
7E
ENDCHAR
STARTCHAR 004B
ENCODING 75
SWIDTH 666 0
DWIDTH 10 0
BBX 9 11 1 0
BITMAP
C380
C600
CC00
D800
F000
E000
F000
DC00
CE00
C300
C180
ENDCHAR
STARTCHAR 004C
ENCODING 76
SWIDTH 600 0
DWIDTH 9 0
BBX 7 11 1 0
BITMAP
C0
C0
C0
C0
C0
C0
C0
C0
C0
FE
FE
ENDCHAR
STARTCHAR 004D
ENCODING 77
SWIDTH 933 0
DWIDTH 14 0
BBX 12 11 1 0
BITMAP
C030
E070
E070
F0F0
D0B0
D9B0
C930
CF30
C630
C630
C430
ENDCHAR
STARTCHAR 004E
ENCODING 78
SWIDTH 800 0
DWIDTH 12 0
BBX 10 11 1 0
BITMAP
C0C0
E0C0
F0C0
D0C0
D8C0
CCC0
C6C0
C2C0
C3C0
C1C0
C0C0
ENDCHAR
STARTCHAR 004F
ENCODING 79
SWIDTH 800 0
DWIDTH 12 0
BBX 9 11 1 0
BITMAP
7F80
FF80
C080
C080
C080
C080
C080
C080
C080
FF80
7F80
ENDCHAR
STARTCHAR 0050
ENCODING 80
SWIDTH 666 0
DWIDTH 10 0
BBX 9 11 1 0
BITMAP
FF00
FF00
C180
C180
C180
FF00
FF00
C000
C000
C000
C000
ENDCHAR
STARTCHAR 0051
ENCODING 81
SWIDTH 800 0
DWIDTH 12 0
BBX 9 13 1 -2
BITMAP
7F80
FF80
C080
C080
C080
C080
C080
C080
CC80
FF80
7F80
0C00
0C00
ENDCHAR
STARTCHAR 0052
ENCODING 82
SWIDTH 733 0
DWIDTH 11 0
BBX 9 11 1 0
BITMAP
FF00
FF00
C180
C180
C180
FF00
FF00
C600
C300
C300
C180
ENDCHAR
STARTCHAR 0053
ENCODING 83
SWIDTH 733 0
DWIDTH 11 0
BBX 8 11 1 0
BITMAP
7F
FF
C1
C0
C0
FF
7F
01
C1
FF
7F
ENDCHAR
STARTCHAR 0054
ENCODING 84
SWIDTH 600 0
DWIDTH 9 0
BBX 9 11 0 0
BITMAP
FF80
FF80
0800
0800
0800
0800
0800
0800
0800
0800
0800
ENDCHAR
STARTCHAR 0055
ENCODING 85
SWIDTH 800 0
DWIDTH 12 0
BBX 9 11 1 0
BITMAP
C080
C080
C080
C080
C080
C080
C080
C080
C080
FF80
7F80
ENDCHAR
STARTCHAR 0056
ENCODING 86
SWIDTH 733 0
DWIDTH 11 0
BBX 10 11 0 0
BITMAP
C0C0
60C0
6080
2180
3180
3100
1300
1A00
0A00
0E00
0C00
ENDCHAR
STARTCHAR 0057
ENCODING 87
SWIDTH 1000 0
DWIDTH 15 0
BBX 14 11 0 0
BITMAP
C304
430C
638C
6288
2688
26D8
34D0
3450
1C70
1C70
1860
ENDCHAR
STARTCHAR 0058
ENCODING 88
SWIDTH 666 0
DWIDTH 10 0
BBX 10 11 0 0
BITMAP
60C0
2180
3300
1A00
0E00
0C00
0E00
1A00
3300
6180
E0C0
ENDCHAR
STARTCHAR 0059
ENCODING 89
SWIDTH 666 0
DWIDTH 10 0
BBX 10 11 0 0
BITMAP
C0C0
6180
3100
3300
1E00
0E00
0C00
0C00
0C00
0C00
0C00
ENDCHAR
STARTCHAR 005A
ENCODING 90
SWIDTH 666 0
DWIDTH 10 0
BBX 8 11 1 0
BITMAP
FF
FF
02
04
0C
18
10
20
60
7F
FF
ENDCHAR
STARTCHAR 005B
ENCODING 91
SWIDTH 400 0
DWIDTH 6 0
BBX 4 14 1 -3
BITMAP
F0
C0
C0
C0
C0
C0
C0
C0
C0
C0
C0
C0
C0
F0
ENDCHAR
STARTCHAR 005C
ENCODING 92
SWIDTH 466 0
DWIDTH 7 0
BBX 5 12 1 -1
BITMAP
80
C0
C0
40
60
60
20
30
30
10
18
18
ENDCHAR
STARTCHAR 005D
ENCODING 93
SWIDTH 400 0
DWIDTH 6 0
BBX 4 14 1 -3
BITMAP
F0
30
30
30
30
30
30
30
30
30
30
30
30
F0
ENDCHAR
STARTCHAR 005E
ENCODING 94
SWIDTH 533 0
DWIDTH 8 0
BBX 7 5 1 6
BITMAP
30
38
48
CC
86
ENDCHAR
STARTCHAR 005F
ENCODING 95
SWIDTH 600 0
DWIDTH 9 0
BBX 9 1 0 -4
BITMAP
FF80
ENDCHAR
STARTCHAR 0060
ENCODING 96
SWIDTH 400 0
DWIDTH 6 0
BBX 4 2 1 9
BITMAP
E0
30
ENDCHAR
STARTCHAR 0061
ENCODING 97
SWIDTH 600 0
DWIDTH 9 0
BBX 7 8 1 0
BITMAP
7C
06
06
7E
C6
C6
C6
7E
ENDCHAR
STARTCHAR 0062
ENCODING 98
SWIDTH 600 0
DWIDTH 9 0
BBX 7 11 1 0
BITMAP
C0
C0
C0
FE
C2
C2
C2
C2
C2
C2
7E
ENDCHAR
STARTCHAR 0063
ENCODING 99
SWIDTH 600 0
DWIDTH 9 0
BBX 7 8 1 0
BITMAP
7C
C6
C6
C0
C0
C6
C6
7C
ENDCHAR
STARTCHAR 0064
ENCODING 100
SWIDTH 600 0
DWIDTH 9 0
BBX 7 11 1 0
BITMAP
02
02
02
7E
C2
C2
C2
C2
C2
C2
7E
ENDCHAR
STARTCHAR 0065
ENCODING 101
SWIDTH 600 0
DWIDTH 9 0
BBX 7 8 1 0
BITMAP
7C
C6
C6
C6
FE
C0
C0
7E
ENDCHAR
STARTCHAR 0066
ENCODING 102
SWIDTH 466 0
DWIDTH 7 0
BBX 6 11 1 0
BITMAP
3C
20
20
FC
20
20
20
20
20
20
20
ENDCHAR
STARTCHAR 0067
ENCODING 103
SWIDTH 600 0
DWIDTH 9 0
BBX 7 11 1 -3
BITMAP
7A
C6
C2
C2
C2
C2
7E
02
02
02
7E
ENDCHAR
STARTCHAR 0068
ENCODING 104
SWIDTH 600 0
DWIDTH 9 0
BBX 7 11 1 0
BITMAP
C0
C0
C0
FE
C2
C2
C2
C2
C2
C2
C2
ENDCHAR
STARTCHAR 0069
ENCODING 105
SWIDTH 266 0
DWIDTH 4 0
BBX 2 11 1 0
BITMAP
C0
C0
00
C0
C0
C0
C0
C0
C0
C0
C0
ENDCHAR
STARTCHAR 006A
ENCODING 106
SWIDTH 266 0
DWIDTH 4 0
BBX 3 14 0 -3
BITMAP
60
60
00
60
60
60
60
60
60
60
60
60
60
E0
ENDCHAR
STARTCHAR 006B
ENCODING 107
SWIDTH 533 0
DWIDTH 8 0
BBX 7 11 1 0
BITMAP
C0
C0
C0
C6
DC
F0
E0
F0
D8
CC
C6
ENDCHAR
STARTCHAR 006C
ENCODING 108
SWIDTH 266 0
DWIDTH 4 0
BBX 2 11 1 0
BITMAP
C0
C0
C0
C0
C0
C0
C0
C0
C0
C0
C0
ENDCHAR
STARTCHAR 006D
ENCODING 109
SWIDTH 866 0
DWIDTH 13 0
BBX 11 8 1 0
BITMAP
FDE0
C620
C420
C420
C420
C420
C420
C420
ENDCHAR
STARTCHAR 006E
ENCODING 110
SWIDTH 600 0
DWIDTH 9 0
BBX 7 8 1 0
BITMAP
FE
C2
C2
C2
C2
C2
C2
C2
ENDCHAR
STARTCHAR 006F
ENCODING 111
SWIDTH 600 0
DWIDTH 9 0
BBX 7 8 1 0
BITMAP
7E
C2
C2
C2
C2
C2
C2
7E
ENDCHAR
STARTCHAR 0070
ENCODING 112
SWIDTH 600 0
DWIDTH 9 0
BBX 7 11 1 -3
BITMAP
FE
C2
C2
C2
C2
C2
C2
FE
C0
C0
C0
ENDCHAR
STARTCHAR 0071
ENCODING 113
SWIDTH 600 0
DWIDTH 9 0
BBX 7 11 1 -3
BITMAP
7E
C2
C2
C2
C2
C2
C2
7E
02
02
02
ENDCHAR
STARTCHAR 0072
ENCODING 114
SWIDTH 533 0
DWIDTH 8 0
BBX 6 8 1 0
BITMAP
FC
C4
C4
C0
C0
C0
C0
C0
ENDCHAR
STARTCHAR 0073
ENCODING 115
SWIDTH 533 0
DWIDTH 8 0
BBX 6 8 1 0
BITMAP
FC
80
80
80
FC
04
04
FC
ENDCHAR
STARTCHAR 0074
ENCODING 116
SWIDTH 533 0
DWIDTH 8 0
BBX 6 10 1 0
BITMAP
20
20
FC
20
20
20
20
20
20
3C
ENDCHAR
STARTCHAR 0075
ENCODING 117
SWIDTH 600 0
DWIDTH 9 0
BBX 7 8 1 0
BITMAP
C2
C2
C2
C2
C2
C2
C2
7E
ENDCHAR
STARTCHAR 0076
ENCODING 118
SWIDTH 533 0
DWIDTH 8 0
BBX 8 8 0 0
BITMAP
C3
42
62
26
34
3C
1C
18
ENDCHAR
STARTCHAR 0077
ENCODING 119
SWIDTH 800 0
DWIDTH 12 0
BBX 12 8 0 0
BITMAP
C630
4620
6720
6F60
2940
2940
39C0
1080
ENDCHAR
STARTCHAR 0078
ENCODING 120
SWIDTH 600 0
DWIDTH 9 0
BBX 8 8 0 0
BITMAP
63
26
3C
18
1C
34
26
E3
ENDCHAR
STARTCHAR 0079
ENCODING 121
SWIDTH 533 0
DWIDTH 8 0
BBX 8 11 0 -3
BITMAP
C3
42
66
24
3C
1C
18
18
10
30
20
ENDCHAR
STARTCHAR 007A
ENCODING 122
SWIDTH 533 0
DWIDTH 8 0
BBX 7 8 1 0
BITMAP
FE
0C
18
38
30
60
60
FE
ENDCHAR
STARTCHAR 007B
ENCODING 123
SWIDTH 400 0
DWIDTH 6 0
BBX 5 14 0 -3
BITMAP
18
20
20
20
20
20
C0
20
20
20
20
20
20
18
ENDCHAR
STARTCHAR 007C
ENCODING 124
SWIDTH 266 0
DWIDTH 4 0
BBX 2 14 1 -3
BITMAP
C0
C0
C0
C0
C0
C0
C0
C0
C0
C0
C0
C0
C0
C0
ENDCHAR
STARTCHAR 007D
ENCODING 125
SWIDTH 400 0
DWIDTH 6 0
BBX 5 14 1 -3
BITMAP
C0
60
20
20
20
20
18
20
20
20
20
20
60
C0
ENDCHAR
STARTCHAR 007E
ENCODING 126
SWIDTH 600 0
DWIDTH 9 0
BBX 7 2 1 4
BITMAP
72
9C
ENDCHAR
STARTCHAR 00A0
ENCODING 160
SWIDTH 333 0
DWIDTH 5 0
BBX 0 0 0 0
BITMAP
ENDCHAR
STARTCHAR 00A1
ENCODING 161
SWIDTH 266 0
DWIDTH 4 0
BBX 2 10 1 -3
BITMAP
C0
C0
00
40
40
40
C0
C0
C0
C0
ENDCHAR
STARTCHAR 00A2
ENCODING 162
SWIDTH 600 0
DWIDTH 9 0
BBX 7 11 1 -2
BITMAP
10
7C
C6
C6
C0
C0
C6
C6
7C
10
10
ENDCHAR
STARTCHAR 00A3
ENCODING 163
SWIDTH 733 0
DWIDTH 11 0
BBX 9 11 1 0
BITMAP
3F00
7F00
6100
6000
6000
FC00
6000
6180
6180
FF80
DF00
ENDCHAR
STARTCHAR 00A4
ENCODING 164
SWIDTH 666 0
DWIDTH 10 0
BBX 8 8 1 1
BITMAP
82
7F
66
42
42
66
7E
83
ENDCHAR
STARTCHAR 00A5
ENCODING 165
SWIDTH 666 0
DWIDTH 10 0
BBX 10 11 0 0
BITMAP
C0C0
6180
3100
3300
1E00
0E00
7F80
0C00
7F80
0C00
0C00
ENDCHAR
STARTCHAR 00A6
ENCODING 166
SWIDTH 266 0
DWIDTH 4 0
BBX 2 14 1 -3
BITMAP
C0
C0
C0
C0
C0
C0
00
00
C0
C0
C0
C0
C0
C0
ENDCHAR
STARTCHAR 00A7
ENCODING 167
SWIDTH 666 0
DWIDTH 10 0
BBX 8 15 1 -4
BITMAP
7F
7F
C3
C0
C0
7F
7F
C3
C3
FE
7F
03
C3
FF
7F
ENDCHAR
STARTCHAR 00A8
ENCODING 168
SWIDTH 400 0
DWIDTH 6 0
BBX 5 2 1 9
BITMAP
98
98
ENDCHAR
STARTCHAR 00A9
ENCODING 169
SWIDTH 800 0
DWIDTH 12 0
BBX 11 11 1 0
BITMAP
1F00
6180
40C0
9E40
9240
9060
9040
9240
5EC0
6180
1F00
ENDCHAR
STARTCHAR 00AA
ENCODING 170
SWIDTH 466 0
DWIDTH 7 0
BBX 5 7 1 3
BITMAP
F8
08
F8
88
F8
00
F8
ENDCHAR
STARTCHAR 00AB
ENCODING 171
SWIDTH 533 0
DWIDTH 8 0
BBX 6 7 1 0
BITMAP
24
24
48
90
48
24
24
ENDCHAR
STARTCHAR 00AC
ENCODING 172
SWIDTH 733 0
DWIDTH 11 0
BBX 8 4 1 2
BITMAP
FF
01
01
01
ENDCHAR
STARTCHAR 00AE
ENCODING 174
SWIDTH 800 0
DWIDTH 12 0
BBX 11 11 1 0
BITMAP
1F00
6180
40C0
9E40
9140
9E60
9240
9240
41C0
6180
1F00
ENDCHAR
STARTCHAR 00AF
ENCODING 175
SWIDTH 466 0
DWIDTH 7 0
BBX 5 1 1 9
BITMAP
F8
ENDCHAR
STARTCHAR 00B0
ENCODING 176
SWIDTH 466 0
DWIDTH 7 0
BBX 5 5 1 6
BITMAP
70
90
98
90
70
ENDCHAR
STARTCHAR 00B1
ENCODING 177
SWIDTH 733 0
DWIDTH 11 0
BBX 8 8 1 0
BITMAP
08
08
08
FF
08
08
08
FF
ENDCHAR
STARTCHAR 00B2
ENCODING 178
SWIDTH 400 0
DWIDTH 6 0
BBX 4 5 1 5
BITMAP
F0
90
60
90
F0
ENDCHAR
STARTCHAR 00B3
ENCODING 179
SWIDTH 400 0
DWIDTH 6 0
BBX 4 5 1 5
BITMAP
F0
90
70
90
F0
ENDCHAR
STARTCHAR 00B4
ENCODING 180
SWIDTH 400 0
DWIDTH 6 0
BBX 4 2 1 9
BITMAP
70
C0
ENDCHAR
STARTCHAR 00B5
ENCODING 181
SWIDTH 600 0
DWIDTH 9 0
BBX 7 11 1 -3
BITMAP
C2
C2
C2
C2
C2
C2
C2
FE
C0
C0
C0
ENDCHAR
STARTCHAR 00B6
ENCODING 182
SWIDTH 666 0
DWIDTH 10 0
BBX 8 14 1 -3
BITMAP
7F
FF
F9
F9
F9
F9
79
19
19
19
19
19
19
19
ENDCHAR
STARTCHAR 00B7
ENCODING 183
SWIDTH 333 0
DWIDTH 5 0
BBX 2 2 1 4
BITMAP
C0
C0
ENDCHAR
STARTCHAR 00B8
ENCODING 184
SWIDTH 533 0
DWIDTH 8 0
BBX 3 4 2 -4
BITMAP
60
E0
20
E0
ENDCHAR
STARTCHAR 00B9
ENCODING 185
SWIDTH 266 0
DWIDTH 4 0
BBX 2 6 1 5
BITMAP
C0
C0
C0
C0
C0
C0
ENDCHAR
STARTCHAR 00BA
ENCODING 186
SWIDTH 466 0
DWIDTH 7 0
BBX 5 7 1 3
BITMAP
F8
88
88
88
F8
00
F8
ENDCHAR
STARTCHAR 00BB
ENCODING 187
SWIDTH 533 0
DWIDTH 8 0
BBX 7 7 1 0
BITMAP
90
D8
6C
26
6C
D8
90
ENDCHAR
STARTCHAR 00BC
ENCODING 188
SWIDTH 800 0
DWIDTH 12 0
BBX 10 11 1 0
BITMAP
C100
4300
4200
4400
4C00
4800
1180
3280
2280
47C0
C080
ENDCHAR
STARTCHAR 00BD
ENCODING 189
SWIDTH 866 0
DWIDTH 13 0
BBX 11 11 1 0
BITMAP
C100
4300
4200
4400
4C00
49E0
1220
30E0
2180
4220
C3E0
ENDCHAR
STARTCHAR 00BE
ENCODING 190
SWIDTH 933 0
DWIDTH 14 0
BBX 12 10 1 0
BITMAP
F060
90C0
3080
9100
F200
0260
0460
08A0
19F0
3020
ENDCHAR
STARTCHAR 00BF
ENCODING 191
SWIDTH 533 0
DWIDTH 8 0
BBX 7 10 1 -3
BITMAP
38
38
00
10
30
E0
80
86
FC
FC
ENDCHAR
STARTCHAR 00C0
ENCODING 192
SWIDTH 733 0
DWIDTH 11 0
BBX 10 14 0 0
BITMAP
1800
0400
0200
0C00
0C00
0E00
1A00
1300
1300
3100
3F80
7F80
6080
C0C0
ENDCHAR
STARTCHAR 00C1
ENCODING 193
SWIDTH 733 0
DWIDTH 11 0
BBX 10 14 0 0
BITMAP
0700
0C00
0000
0C00
0C00
0E00
1A00
1300
1300
3100
3F80
7F80
6080
C0C0
ENDCHAR
STARTCHAR 00C2
ENCODING 194
SWIDTH 733 0
DWIDTH 11 0
BBX 10 14 0 0
BITMAP
0E00
1B00
0000
0C00
0C00
0E00
1A00
1300
1300
3100
3F80
7F80
6080
C0C0
ENDCHAR
STARTCHAR 00C3
ENCODING 195
SWIDTH 733 0
DWIDTH 11 0
BBX 10 14 0 0
BITMAP
1900
2700
0000
0C00
0C00
0E00
1A00
1300
1300
3100
3F80
7F80
6080
C0C0
ENDCHAR
STARTCHAR 00C4
ENCODING 196
SWIDTH 733 0
DWIDTH 11 0
BBX 10 14 0 0
BITMAP
1B00
1B00
0000
0C00
0C00
0E00
1A00
1300
1300
3100
3F80
7F80
6080
C0C0
ENDCHAR
STARTCHAR 00C5
ENCODING 197
SWIDTH 733 0
DWIDTH 11 0
BBX 10 13 0 0
BITMAP
0E00
1200
1200
0E00
0E00
1A00
1200
1300
3100
3F80
7F80
6080
C0C0
ENDCHAR
STARTCHAR 00C6
ENCODING 198
SWIDTH 1133 0
DWIDTH 17 0
BBX 16 11 0 0
BITMAP
00FF
01FF
0340
0340
0640
0C7E
187E
1FC0
3FC0
607F
C07F
ENDCHAR
STARTCHAR 00C7
ENCODING 199
SWIDTH 733 0
DWIDTH 11 0
BBX 9 15 1 -4
BITMAP
7F80
FF80
C080
C000
C000
C000
C000
C000
C080
FF80
7F80
0800
1C00
0400
1C00
ENDCHAR
STARTCHAR 00C8
ENCODING 200
SWIDTH 666 0
DWIDTH 10 0
BBX 8 14 1 0
BITMAP
30
08
04
FF
FF
C0
C0
C0
FE
FE
C0
C0
FF
FF
ENDCHAR
STARTCHAR 00C9
ENCODING 201
SWIDTH 666 0
DWIDTH 10 0
BBX 8 14 1 0
BITMAP
0C
10
00
FF
FF
C0
C0
C0
FE
FE
C0
C0
FF
FF
ENDCHAR
STARTCHAR 00CA
ENCODING 202
SWIDTH 666 0
DWIDTH 10 0
BBX 8 14 1 0
BITMAP
1C
26
00
FF
FF
C0
C0
C0
FE
FE
C0
C0
FF
FF
ENDCHAR
STARTCHAR 00CB
ENCODING 203
SWIDTH 666 0
DWIDTH 10 0
BBX 8 14 1 0
BITMAP
36
36
00
FF
FF
C0
C0
C0
FE
FE
C0
C0
FF
FF
ENDCHAR
STARTCHAR 00CC
ENCODING 204
SWIDTH 266 0
DWIDTH 4 0
BBX 3 14 0 0
BITMAP
C0
20
00
60
60
60
60
60
60
60
60
60
60
60
ENDCHAR
STARTCHAR 00CD
ENCODING 205
SWIDTH 266 0
DWIDTH 4 0
BBX 4 14 1 0
BITMAP
70
80
00
C0
C0
C0
C0
C0
C0
C0
C0
C0
C0
C0
ENDCHAR
STARTCHAR 00CE
ENCODING 206
SWIDTH 266 0
DWIDTH 4 0
BBX 6 14 -1 0
BITMAP
30
48
84
30
30
30
30
30
30
30
30
30
30
30
ENDCHAR
STARTCHAR 00CF
ENCODING 207
SWIDTH 266 0
DWIDTH 4 0
BBX 4 14 0 0
BITMAP
90
90
00
60
60
60
60
60
60
60
60
60
60
60
ENDCHAR
STARTCHAR 00D0
ENCODING 208
SWIDTH 800 0
DWIDTH 12 0
BBX 11 11 0 0
BITMAP
3F80
3FC0
2040
2060
2060
2060
FC60
2060
2040
3FC0
3F80
ENDCHAR
STARTCHAR 00D1
ENCODING 209
SWIDTH 800 0
DWIDTH 12 0
BBX 10 14 1 0
BITMAP
1900
2600
0000
C0C0
E0C0
E0C0
F0C0
D8C0
CCC0
C4C0
C6C0
C3C0
C1C0
C0C0
ENDCHAR
STARTCHAR 00D2
ENCODING 210
SWIDTH 800 0
DWIDTH 12 0
BBX 9 14 1 0
BITMAP
3800
0400
0000
7F80
FF80
C080
C080
C080
C080
C080
C080
C080
FF80
7F80
ENDCHAR
STARTCHAR 00D3
ENCODING 211
SWIDTH 800 0
DWIDTH 12 0
BBX 9 14 1 0
BITMAP
0600
0800
0000
7F80
FF80
C080
C080
C080
C080
C080
C080
C080
FF80
7F80
ENDCHAR
STARTCHAR 00D4
ENCODING 212
SWIDTH 800 0
DWIDTH 12 0
BBX 9 14 1 0
BITMAP
1C00
1200
2000
7F80
FF80
C080
C080
C080
C080
C080
C080
C080
FF80
7F80
ENDCHAR
STARTCHAR 00D5
ENCODING 213
SWIDTH 800 0
DWIDTH 12 0
BBX 9 14 1 0
BITMAP
1900
2600
0000
7F80
FF80
C080
C080
C080
C080
C080
C080
C080
FF80
7F80
ENDCHAR
STARTCHAR 00D6
ENCODING 214
SWIDTH 800 0
DWIDTH 12 0
BBX 9 14 1 0
BITMAP
1200
1200
0000
7F80
FF80
C080
C080
C080
C080
C080
C080
C080
FF80
7F80
ENDCHAR
STARTCHAR 00D7
ENCODING 215
SWIDTH 666 0
DWIDTH 10 0
BBX 8 8 1 0
BITMAP
82
C7
6C
38
38
6C
C6
83
ENDCHAR
STARTCHAR 00D8
ENCODING 216
SWIDTH 800 0
DWIDTH 12 0
BBX 9 14 1 -2
BITMAP
0080
7F00
FF80
C280
C680
C480
C880
C880
D080
F080
FF80
7F80
4000
C000
ENDCHAR
STARTCHAR 00D9
ENCODING 217
SWIDTH 800 0
DWIDTH 12 0
BBX 9 14 1 0
BITMAP
3800
0C00
0000
C080
C080
C080
C080
C080
C080
C080
C080
C080
FF80
7F80
ENDCHAR
STARTCHAR 00DA
ENCODING 218
SWIDTH 800 0
DWIDTH 12 0
BBX 9 14 1 0
BITMAP
0700
0800
0000
C080
C080
C080
C080
C080
C080
C080
C080
C080
FF80
7F80
ENDCHAR
STARTCHAR 00DB
ENCODING 219
SWIDTH 800 0
DWIDTH 12 0
BBX 9 14 1 0
BITMAP
1C00
1200
2000
C080
C080
C080
C080
C080
C080
C080
C080
C080
FF80
7F80
ENDCHAR
STARTCHAR 00DC
ENCODING 220
SWIDTH 800 0
DWIDTH 12 0
BBX 9 14 1 0
BITMAP
1200
1200
0000
C080
C080
C080
C080
C080
C080
C080
C080
C080
FF80
7F80
ENDCHAR
STARTCHAR 00DD
ENCODING 221
SWIDTH 666 0
DWIDTH 10 0
BBX 10 14 0 0
BITMAP
0700
0C00
0000
C0C0
6180
2100
3300
1A00
0E00
0C00
0C00
0C00
0C00
0C00
ENDCHAR
STARTCHAR 00DE
ENCODING 222
SWIDTH 666 0
DWIDTH 10 0
BBX 9 11 1 0
BITMAP
C000
C000
FF00
FF80
C180
C180
C180
FF00
C000
C000
C000
ENDCHAR
STARTCHAR 00DF
ENCODING 223
SWIDTH 666 0
DWIDTH 10 0
BBX 8 11 1 0
BITMAP
7E
C2
C2
CE
DE
D8
D0
DF
C1
C1
DF
ENDCHAR
STARTCHAR 00E0
ENCODING 224
SWIDTH 600 0
DWIDTH 9 0
BBX 7 11 1 0
BITMAP
70
18
00
7C
06
06
7E
C6
C6
C6
7E
ENDCHAR
STARTCHAR 00E1
ENCODING 225
SWIDTH 600 0
DWIDTH 9 0
BBX 7 11 1 0
BITMAP
1C
30
00
7C
06
06
7E
C6
C6
C6
7E
ENDCHAR
STARTCHAR 00E2
ENCODING 226
SWIDTH 600 0
DWIDTH 9 0
BBX 7 11 1 0
BITMAP
38
64
00
7C
06
06
7E
C6
C6
C6
7E
ENDCHAR
STARTCHAR 00E3
ENCODING 227
SWIDTH 600 0
DWIDTH 9 0
BBX 7 11 1 0
BITMAP
76
5C
00
7C
06
06
7E
C6
C6
C6
7E
ENDCHAR
STARTCHAR 00E4
ENCODING 228
SWIDTH 600 0
DWIDTH 9 0
BBX 7 11 1 0
BITMAP
6C
6C
00
7C
06
06
7E
C6
C6
C6
7E
ENDCHAR
STARTCHAR 00E5
ENCODING 229
SWIDTH 600 0
DWIDTH 9 0
BBX 7 13 1 0
BITMAP
38
2C
2C
38
00
7C
06
06
7E
C6
C6
C6
7E
ENDCHAR
STARTCHAR 00E6
ENCODING 230
SWIDTH 933 0
DWIDTH 14 0
BBX 12 8 1 0
BITMAP
7FF0
0610
0610
7E10
C7F0
C600
C600
7BF0
ENDCHAR
STARTCHAR 00E7
ENCODING 231
SWIDTH 600 0
DWIDTH 9 0
BBX 7 12 1 -4
BITMAP
7C
C6
C6
C0
C0
C6
C6
7C
10
38
08
38
ENDCHAR
STARTCHAR 00E8
ENCODING 232
SWIDTH 600 0
DWIDTH 9 0
BBX 7 11 1 0
BITMAP
70
18
00
7C
C6
C6
C6
FE
C0
C0
7E
ENDCHAR
STARTCHAR 00E9
ENCODING 233
SWIDTH 600 0
DWIDTH 9 0
BBX 7 11 1 0
BITMAP
1C
30
00
7C
C6
C6
C6
FE
C0
C0
7E
ENDCHAR
STARTCHAR 00EA
ENCODING 234
SWIDTH 600 0
DWIDTH 9 0
BBX 7 11 1 0
BITMAP
38
6C
00
7C
C6
C6
C6
FE
C0
C0
7E
ENDCHAR
STARTCHAR 00EB
ENCODING 235
SWIDTH 600 0
DWIDTH 9 0
BBX 7 11 1 0
BITMAP
6C
6C
00
7C
C6
C6
C6
FE
C0
C0
7E
ENDCHAR
STARTCHAR 00EC
ENCODING 236
SWIDTH 266 0
DWIDTH 4 0
BBX 4 11 -1 0
BITMAP
E0
10
00
30
30
30
30
30
30
30
30
ENDCHAR
STARTCHAR 00ED
ENCODING 237
SWIDTH 266 0
DWIDTH 4 0
BBX 4 11 1 0
BITMAP
70
80
00
C0
C0
C0
C0
C0
C0
C0
C0
ENDCHAR
STARTCHAR 00EE
ENCODING 238
SWIDTH 266 0
DWIDTH 4 0
BBX 6 11 -1 0
BITMAP
30
48
84
30
30
30
30
30
30
30
30
ENDCHAR
STARTCHAR 00EF
ENCODING 239
SWIDTH 266 0
DWIDTH 4 0
BBX 4 11 0 0
BITMAP
90
90
00
60
60
60
60
60
60
60
60
ENDCHAR
STARTCHAR 00F0
ENCODING 240
SWIDTH 600 0
DWIDTH 9 0
BBX 7 11 1 0
BITMAP
14
0E
14
7E
C2
C2
C2
C2
C2
C2
7E
ENDCHAR
STARTCHAR 00F1
ENCODING 241
SWIDTH 600 0
DWIDTH 9 0
BBX 7 11 1 0
BITMAP
76
5C
00
FE
C2
C2
C2
C2
C2
C2
C2
ENDCHAR
STARTCHAR 00F2
ENCODING 242
SWIDTH 600 0
DWIDTH 9 0
BBX 7 11 1 0
BITMAP
70
18
00
7E
C2
C2
C2
C2
C2
C2
7E
ENDCHAR
STARTCHAR 00F3
ENCODING 243
SWIDTH 600 0
DWIDTH 9 0
BBX 7 11 1 0
BITMAP
1C
30
00
7E
C2
C2
C2
C2
C2
C2
7E
ENDCHAR
STARTCHAR 00F4
ENCODING 244
SWIDTH 600 0
DWIDTH 9 0
BBX 7 11 1 0
BITMAP
38
6C
00
7E
C2
C2
C2
C2
C2
C2
7E
ENDCHAR
STARTCHAR 00F5
ENCODING 245
SWIDTH 600 0
DWIDTH 9 0
BBX 7 11 1 0
BITMAP
74
5C
00
7E
C2
C2
C2
C2
C2
C2
7E
ENDCHAR
STARTCHAR 00F6
ENCODING 246
SWIDTH 600 0
DWIDTH 9 0
BBX 7 11 1 0
BITMAP
6C
6C
00
7E
C2
C2
C2
C2
C2
C2
7E
ENDCHAR
STARTCHAR 00F7
ENCODING 247
SWIDTH 733 0
DWIDTH 11 0
BBX 8 8 1 0
BITMAP
18
18
00
FF
00
00
18
18
ENDCHAR
STARTCHAR 00F8
ENCODING 248
SWIDTH 600 0
DWIDTH 9 0
BBX 7 11 1 -2
BITMAP
06
7C
CA
CA
D2
D2
F2
E2
FE
40
80
ENDCHAR
STARTCHAR 00F9
ENCODING 249
SWIDTH 600 0
DWIDTH 9 0
BBX 7 11 1 0
BITMAP
70
18
00
00
C2
C2
C2
C2
C2
C2
FE
ENDCHAR
STARTCHAR 00FA
ENCODING 250
SWIDTH 600 0
DWIDTH 9 0
BBX 7 11 1 0
BITMAP
0C
10
20
00
C2
C2
C2
C2
C2
C2
FE
ENDCHAR
STARTCHAR 00FB
ENCODING 251
SWIDTH 600 0
DWIDTH 9 0
BBX 7 11 1 0
BITMAP
38
6C
00
00
C2
C2
C2
C2
C2
C2
FE
ENDCHAR
STARTCHAR 00FC
ENCODING 252
SWIDTH 600 0
DWIDTH 9 0
BBX 7 11 1 0
BITMAP
6C
6C
00
00
C2
C2
C2
C2
C2
C2
FE
ENDCHAR
STARTCHAR 00FD
ENCODING 253
SWIDTH 533 0
DWIDTH 8 0
BBX 8 14 0 -3
BITMAP
0E
18
00
C3
42
66
24
3C
1C
18
18
10
30
20
ENDCHAR
STARTCHAR 00FE
ENCODING 254
SWIDTH 600 0
DWIDTH 9 0
BBX 7 14 1 -3
BITMAP
C0
C0
C0
FE
C2
C2
C2
C2
C2
C2
FE
C0
C0
C0
ENDCHAR
STARTCHAR 00FF
ENCODING 255
SWIDTH 533 0
DWIDTH 8 0
BBX 8 14 0 -3
BITMAP
24
24
00
C3
42
66
24
3C
1C
18
18
10
30
20
ENDCHAR
STARTCHAR 0127
ENCODING 295
SWIDTH 600 0
DWIDTH 9 0
BBX 8 11 0 0
BITMAP
60
FC
60
7F
61
61
61
61
61
61
61
ENDCHAR
STARTCHAR 0128
ENCODING 296
SWIDTH 266 0
DWIDTH 4 0
BBX 6 14 -1 0
BITMAP
64
98
00
30
30
30
30
30
30
30
30
30
30
30
ENDCHAR
STARTCHAR 0129
ENCODING 297
SWIDTH 266 0
DWIDTH 4 0
BBX 6 11 -1 0
BITMAP
64
98
00
30
30
30
30
30
30
30
30
ENDCHAR
STARTCHAR 0131
ENCODING 305
SWIDTH 266 0
DWIDTH 4 0
BBX 2 8 1 0
BITMAP
C0
C0
C0
C0
C0
C0
C0
C0
ENDCHAR
STARTCHAR 0132
ENCODING 306
SWIDTH 933 0
DWIDTH 14 0
BBX 12 11 1 0
BITMAP
C030
C030
C030
C030
C030
C030
C030
CC30
CC30
CFE0
C7E0
ENDCHAR
STARTCHAR 0133
ENCODING 307
SWIDTH 533 0
DWIDTH 8 0
BBX 6 14 1 -3
BITMAP
CC
CC
00
CC
CC
CC
CC
CC
CC
CC
CC
0C
0C
1C
ENDCHAR
STARTCHAR 0134
ENCODING 308
SWIDTH 666 0
DWIDTH 10 0
BBX 9 14 1 0
BITMAP
0700
0D80
0000
0200
0200
0200
0200
0200
0200
0200
C200
C200
FE00
7E00
ENDCHAR
STARTCHAR 0135
ENCODING 309
SWIDTH 266 0
DWIDTH 4 0
BBX 6 14 -1 -3
BITMAP
30
48
84
30
30
30
30
30
30
30
30
30
30
70
ENDCHAR
STARTCHAR 0137
ENCODING 311
SWIDTH 533 0
DWIDTH 8 0
BBX 7 17 1 -6
BITMAP
C0
C0
C0
C6
D8
F0
E0
F0
D8
CC
C6
00
00
30
30
10
20
ENDCHAR
STARTCHAR 0138
ENCODING 312
SWIDTH 533 0
DWIDTH 8 0
BBX 7 8 1 0
BITMAP
C6
D8
F0
E0
F0
D8
CC
C6
ENDCHAR
STARTCHAR 013F
ENCODING 319
SWIDTH 600 0
DWIDTH 9 0
BBX 7 11 1 0
BITMAP
C0
C0
C0
C0
CC
CC
C0
C0
C0
FE
FE
ENDCHAR
STARTCHAR 0140
ENCODING 320
SWIDTH 466 0
DWIDTH 7 0
BBX 5 11 1 0
BITMAP
C0
C0
C0
C0
D8
D8
C0
C0
C0
C0
C0
ENDCHAR
STARTCHAR 0141
ENCODING 321
SWIDTH 600 0
DWIDTH 9 0
BBX 9 11 0 0
BITMAP
2000
2000
2000
2000
2C00
7000
E000
2000
2000
3F80
3F80
ENDCHAR
STARTCHAR 0142
ENCODING 322
SWIDTH 333 0
DWIDTH 5 0
BBX 5 11 0 0
BITMAP
20
20
20
20
28
38
E0
20
20
20
20
ENDCHAR
STARTCHAR 0143
ENCODING 323
SWIDTH 800 0
DWIDTH 12 0
BBX 10 14 1 0
BITMAP
0700
0C00
0000
C0C0
E0C0
E0C0
D0C0
D8C0
CCC0
C6C0
C2C0
C3C0
C1C0
C0C0
ENDCHAR
STARTCHAR 0144
ENCODING 324
SWIDTH 600 0
DWIDTH 9 0
BBX 7 11 1 0
BITMAP
1C
30
00
FE
C2
C2
C2
C2
C2
C2
C2
ENDCHAR
STARTCHAR 0152
ENCODING 338
SWIDTH 1133 0
DWIDTH 17 0
BBX 15 11 1 0
BITMAP
7FFE
FFFE
C180
C180
C180
C1FC
C1FC
C180
C180
FFFE
7FFE
ENDCHAR
STARTCHAR 0153
ENCODING 339
SWIDTH 933 0
DWIDTH 14 0
BBX 12 8 1 0
BITMAP
7FF0
C210
C210
C210
C3F0
C200
C200
7FF0
ENDCHAR
STARTCHAR 0154
ENCODING 340
SWIDTH 733 0
DWIDTH 11 0
BBX 9 14 1 0
BITMAP
0E00
1800
0000
FF00
FF00
C180
C180
C180
FF00
FF00
C600
C300
C300
C180
ENDCHAR
STARTCHAR 0156
ENCODING 342
SWIDTH 733 0
DWIDTH 11 0
BBX 9 17 1 -6
BITMAP
FF00
FF00
C180
C180
C180
FF00
FF00
C600
C200
C300
C100
0080
0000
1C00
1C00
0800
1800
ENDCHAR
STARTCHAR 0157
ENCODING 343
SWIDTH 533 0
DWIDTH 8 0
BBX 6 14 1 -6
BITMAP
FC
C4
C4
C0
C0
C0
C0
00
00
00
C0
C0
40
C0
ENDCHAR
STARTCHAR 0158
ENCODING 344
SWIDTH 733 0
DWIDTH 11 0
BBX 9 14 1 0
BITMAP
3600
1C00
0000
FF00
FF00
C180
C180
C180
FF00
FF00
C600
C300
C300
C180
ENDCHAR
STARTCHAR 0159
ENCODING 345
SWIDTH 533 0
DWIDTH 8 0
BBX 6 11 1 0
BITMAP
EC
30
00
FC
C4
C4
C0
C0
C0
C0
C0
ENDCHAR
STARTCHAR 0160
ENCODING 352
SWIDTH 733 0
DWIDTH 11 0
BBX 8 14 1 0
BITMAP
36
1C
00
7F
FF
C1
C0
C0
FF
7F
01
C1
FF
7F
ENDCHAR
STARTCHAR 0161
ENCODING 353
SWIDTH 533 0
DWIDTH 8 0
BBX 6 11 1 0
BITMAP
6C
30
00
FC
80
80
80
FC
04
04
FC
ENDCHAR
STARTCHAR 0178
ENCODING 376
SWIDTH 666 0
DWIDTH 10 0
BBX 10 14 0 0
BITMAP
1200
1200
0000
C0C0
6080
2180
3300
1A00
1E00
0C00
0C00
0C00
0C00
0C00
ENDCHAR
STARTCHAR 017D
ENCODING 381
SWIDTH 666 0
DWIDTH 10 0
BBX 8 14 1 0
BITMAP
76
18
00
FF
FF
02
04
0C
18
10
20
60
7F
FF
ENDCHAR
STARTCHAR 017E
ENCODING 382
SWIDTH 533 0
DWIDTH 8 0
BBX 7 11 1 0
BITMAP
6C
30
00
FE
0C
18
38
30
60
60
FE
ENDCHAR
STARTCHAR 0192
ENCODING 402
SWIDTH 466 0
DWIDTH 7 0
BBX 8 14 -1 -3
BITMAP
07
0C
0C
08
3F
08
18
18
18
10
10
10
10
E0
ENDCHAR
STARTCHAR 02C6
ENCODING 710
SWIDTH 466 0
DWIDTH 7 0
BBX 5 2 1 9
BITMAP
70
D8
ENDCHAR
STARTCHAR 02C7
ENCODING 711
SWIDTH 466 0
DWIDTH 7 0
BBX 5 2 1 9
BITMAP
D8
70
ENDCHAR
STARTCHAR 02D8
ENCODING 728
SWIDTH 466 0
DWIDTH 7 0
BBX 5 2 1 9
BITMAP
88
70
ENDCHAR
STARTCHAR 02D9
ENCODING 729
SWIDTH 266 0
DWIDTH 4 0
BBX 2 2 1 9
BITMAP
C0
C0
ENDCHAR
STARTCHAR 02DA
ENCODING 730
SWIDTH 533 0
DWIDTH 8 0
BBX 5 4 1 9
BITMAP
70
50
D8
70
ENDCHAR
STARTCHAR 02DB
ENCODING 731
SWIDTH 333 0
DWIDTH 5 0
BBX 3 4 1 -4
BITMAP
C0
80
80
E0
ENDCHAR
STARTCHAR 02DC
ENCODING 732
SWIDTH 533 0
DWIDTH 8 0
BBX 6 2 1 9
BITMAP
E4
98
ENDCHAR
STARTCHAR 02DD
ENCODING 733
SWIDTH 600 0
DWIDTH 9 0
BBX 7 2 1 9
BITMAP
7E
D8
ENDCHAR
STARTCHAR 0307
ENCODING 775
SWIDTH 266 0
DWIDTH 4 0
BBX 2 2 1 9
BITMAP
C0
C0
ENDCHAR
STARTCHAR 2013
ENCODING 8211
SWIDTH 800 0
DWIDTH 12 0
BBX 10 1 1 4
BITMAP
FFC0
ENDCHAR
STARTCHAR 2014
ENCODING 8212
SWIDTH 1000 0
DWIDTH 15 0
BBX 13 1 1 4
BITMAP
FFF8
ENDCHAR
STARTCHAR 2018
ENCODING 8216
SWIDTH 333 0
DWIDTH 5 0
BBX 2 5 1 6
BITMAP
40
40
80
C0
C0
ENDCHAR
STARTCHAR 2019
ENCODING 8217
SWIDTH 266 0
DWIDTH 4 0
BBX 2 4 1 6
BITMAP
C0
C0
40
C0
ENDCHAR
STARTCHAR 201A
ENCODING 8218
SWIDTH 333 0
DWIDTH 5 0
BBX 2 4 1 -2
BITMAP
C0
C0
40
C0
ENDCHAR
STARTCHAR 201C
ENCODING 8220
SWIDTH 533 0
DWIDTH 8 0
BBX 5 5 1 6
BITMAP
48
48
90
D8
D8
ENDCHAR
STARTCHAR 201D
ENCODING 8221
SWIDTH 533 0
DWIDTH 8 0
BBX 5 4 1 6
BITMAP
D8
D8
48
D0
ENDCHAR
STARTCHAR 201E
ENCODING 8222
SWIDTH 533 0
DWIDTH 8 0
BBX 5 4 1 -2
BITMAP
D8
D8
48
D0
ENDCHAR
STARTCHAR 2020
ENCODING 8224
SWIDTH 600 0
DWIDTH 9 0
BBX 7 14 1 -3
BITMAP
10
10
10
10
FE
10
10
10
10
10
10
10
10
10
ENDCHAR
STARTCHAR 2021
ENCODING 8225
SWIDTH 600 0
DWIDTH 9 0
BBX 7 14 1 -3
BITMAP
10
10
10
10
FE
10
10
10
10
10
FE
10
10
10
ENDCHAR
STARTCHAR 2022
ENCODING 8226
SWIDTH 466 0
DWIDTH 7 0
BBX 5 5 1 3
BITMAP
70
F8
F8
F8
70
ENDCHAR
STARTCHAR 2026
ENCODING 8230
SWIDTH 800 0
DWIDTH 12 0
BBX 10 2 1 0
BITMAP
CCC0
CCC0
ENDCHAR
STARTCHAR 2039
ENCODING 8249
SWIDTH 333 0
DWIDTH 5 0
BBX 3 7 1 0
BITMAP
20
20
40
80
40
20
20
ENDCHAR
STARTCHAR 203A
ENCODING 8250
SWIDTH 333 0
DWIDTH 5 0
BBX 3 7 1 0
BITMAP
80
C0
60
20
60
C0
80
ENDCHAR
STARTCHAR 2044
ENCODING 8260
SWIDTH 600 0
DWIDTH 9 0
BBX 8 11 0 0
BITMAP
01
02
02
04
08
08
10
30
20
40
C0
ENDCHAR
STARTCHAR 20AC
ENCODING 8364
SWIDTH 800 0
DWIDTH 12 0
BBX 11 11 0 0
BITMAP
3FC0
3FE0
3060
3000
FF80
3000
FE00
3000
3060
3FE0
3FC0
ENDCHAR
STARTCHAR 2122
ENCODING 8482
SWIDTH 866 0
DWIDTH 13 0
BBX 11 6 1 5
BITMAP
F620
6660
6760
65E0
65A0
64A0
ENDCHAR
STARTCHAR 2212
ENCODING 8722
SWIDTH 733 0
DWIDTH 11 0
BBX 8 1 1 4
BITMAP
FF
ENDCHAR
STARTCHAR F6BE
ENCODING 63166
SWIDTH 266 0
DWIDTH 4 0
BBX 3 11 0 -3
BITMAP
60
60
60
60
60
60
60
60
60
60
C0
ENDCHAR
STARTCHAR F6C3
ENCODING 63171
SWIDTH 266 0
DWIDTH 4 0
BBX 2 4 1 -6
BITMAP
C0
C0
40
80
ENDCHAR
ENDFONT
